<svg xmlns="http://www.w3.org/2000/svg" xmlns:xlink="http://www.w3.org/1999/xlink" version="1.1" x="0px" y="0px" viewBox="0 0 97.061 45.837500000000006" enable-background="new 0 0 97.061 36.67" xml:space="preserve"><g><path fill-rule="evenodd" clip-rule="evenodd" d="M96.998,9.713c0.011,2.645,0.021,5.292,0.034,7.937c0,0.008-0.002,0.014-0.015,0   c-2.072-2.174-4.142-3.928-6.211-5.316c-0.031,0.216-0.004,0.533-0.013,0.787c0.015,0.01,0.03,0.019,0.042,0.028   c2.065,1.388,4.133,3.142,6.198,5.313c0.002,2.637,0.041,5.351,0.02,7.938C64.726-7.626,32.397,60.856,0.069,26.964   c-0.012-2.65-0.022-5.301-0.033-7.951c0.009,0.009,0.018,0.02,0.026,0.026c1.942,2.037,3.883,3.704,5.824,5.046   c0.067,0.058,0.037-0.037,0.039-0.06c0.02-0.183-0.017-0.508-0.002-0.709c-1.959-1.35-3.918-3.031-5.877-5.088   C0.004,15.575,0.02,12.918,0,10.263C32.336,44.307,64.66-24.199,96.998,9.713z M86.562,9.985c-2.112-0.931-4.221-1.517-6.333-1.82   c0,0.266,0.002,0.531,0.004,0.796c2.125,0.304,4.25,0.897,6.372,1.837c0-0.26,0-0.521-0.003-0.781   C86.598,10,86.581,9.992,86.562,9.985z M74.82,7.981c-2.115,0.144-4.232,0.526-6.346,1.088c0.002,0.265,0.002,0.529,0.002,0.794   c2.128-0.566,4.258-0.95,6.388-1.092c-0.002-0.26-0.004-0.52-0.004-0.779C74.858,7.976,74.839,7.978,74.82,7.981z M61.443,11.525   c-2.108,0.89-4.221,1.897-6.332,2.961c0.002,0.266,0.004,0.529,0.004,0.793c2.124-1.072,4.249-2.084,6.373-2.978   c0-0.26-0.002-0.519-0.004-0.779C61.482,11.506,61.463,11.516,61.443,11.525z M50.387,16.948c-2.116,1.125-4.231,2.265-6.347,3.367   c0.002,0.264,0.002,0.528,0.004,0.793c2.128-1.108,4.257-2.257,6.385-3.388c-0.001-0.259-0.002-0.519-0.002-0.778   C50.424,16.925,50.405,16.937,50.387,16.948z M38.592,23.023c-2.112,0.986-4.223,1.884-6.333,2.634   c0.001,0.266,0.001,0.528,0.002,0.794c2.125-0.755,4.248-1.658,6.374-2.653c-0.002-0.259-0.002-0.519-0.004-0.778   C38.629,23.004,38.61,23.013,38.592,23.023z M26.743,27.248c-2.111,0.452-4.222,0.707-6.333,0.71   c0.001,0.264,0.003,0.53,0.003,0.795c2.125-0.002,4.249-0.263,6.374-0.72c-0.001-0.26-0.002-0.519-0.003-0.78   C26.78,27.237,26.762,27.243,26.743,27.248z M16.701,27.689c-2.11-0.313-4.222-0.914-6.333-1.857   c0.001,0.266,0.003,0.53,0.003,0.796c2.125,0.95,4.249,1.552,6.373,1.862c-0.001-0.259-0.001-0.52-0.003-0.779   C16.739,27.693,16.72,27.693,16.701,27.689z"/></g><text x="0" y="51.67" fill="#000000" font-size="5px" font-weight="bold" font-family="'Helvetica Neue', Helvetica, Arial-Unicode, Arial, Sans-serif">Created by Ashley van Dyck</text><text x="0" y="56.67" fill="#000000" font-size="5px" font-weight="bold" font-family="'Helvetica Neue', Helvetica, Arial-Unicode, Arial, Sans-serif">from the Noun Project</text></svg>